# xmcd
#
# Track frame offsets:
#	150
#	23342
#	52860
#	67575
#	82555
#	98830
#	119965
#	135582
#	153085
#	169447
#
# Disc length: 2490 seconds
#
# Revision: 1
# Processed by: cddbd v1.5.1PL0 Copyright (c) Steve Scherf et al.
# Submitted via: CDex 1.50Beta5
#
DISCID=6b09b80a
DTITLE=尾崎亜美 - MIND DROPS
DYEAR=1987
DGENRE=Pop
TTITLE0=太陽のひとりごと
TTITLE1=涙の雨
TTITLE2=BYE BYE MR.RANDOM
TTITLE3=うわさの男
TTITLE4=夢子とかげろう
TTITLE5=BOOMING CRACKER
TTITLE6=旅
TTITLE7=偶然
TTITLE8=初恋の通り雨
TTITLE9=さよならを言うために
EXTD=
EXTT0=
EXTT1=
EXTT2=
EXTT3=
EXTT4=
EXTT5=
EXTT6=
EXTT7=
EXTT8=
EXTT9=
PLAYORDER=
